<svg width="144" height="120" viewBox="0 0 144 120" fill="none" xmlns="http://www.w3.org/2000/svg">
<path d="M43.6271 0.0437622L77.9215 16.5034V56.7956L73.6296 55.5203V20.9471L51.8869 12.1394V63.511L64.641 60.2828L72.9211 63.5708L43.6271 73.6339V0.0437622Z" fill="#C94A21"/>
<path d="M100.373 0L72.2938 12.534L79.2174 15.802L92.0525 11.3982V62.451L70.6337 55.7157V21.1624L66.2406 19.4686V59.701L100.373 72.9923V0Z" fill="#1C1C1C"/>
<path d="M5.62801 89.8904H0V85.2076H16.6208V89.8904H10.9928V118.007H5.62801V89.8904Z" fill="#222222"/>
<path d="M18.787 92.1421H25.0628C27.2492 92.1421 28.8486 92.6203 29.8406 93.5968C30.8325 94.5732 31.3387 96.0677 31.3387 98.0803V99.6745C31.3387 102.365 30.4074 104.058 28.5651 104.776V104.855C29.5976 105.154 30.3264 105.752 30.7516 106.669C31.1767 107.585 31.3791 108.801 31.3791 110.335V114.879C31.3791 115.616 31.3994 116.214 31.4601 116.672C31.5209 117.13 31.6423 117.569 31.8448 118.027H27.5327C27.3707 117.609 27.2695 117.21 27.229 116.851C27.1683 116.473 27.148 115.815 27.148 114.859V110.136C27.148 108.96 26.9456 108.123 26.5407 107.665C26.1358 107.207 25.4475 106.968 24.4757 106.968H23.0181V118.047H18.787V92.1421ZM24.5567 103.221C25.407 103.221 26.0346 103.022 26.4597 102.584C26.8848 102.165 27.0873 101.468 27.0873 100.472V98.4788C27.0873 97.5423 26.9051 96.8648 26.5609 96.4463C26.2168 96.0278 25.6702 95.8086 24.9211 95.8086H22.9979V103.221H24.5567Z" fill="#222222"/>
<path d="M37.5739 92.1421H43.3234L47.7164 118.007H43.4853L42.716 112.866V112.946H37.8978L37.1285 118.007H33.201L37.5739 92.1421ZM42.2099 109.439L40.3272 96.6456H40.2462L38.4039 109.439H42.2099Z" fill="#222222"/>
<path d="M51.0166 116.712C49.9436 115.596 49.4173 114.042 49.4173 112.029V98.1403C49.4173 96.1277 49.9436 94.5535 51.0166 93.4575C52.0896 92.3416 53.6281 91.8036 55.6526 91.8036C57.6771 91.8036 59.2359 92.3615 60.2886 93.4575C61.3616 94.5734 61.8879 96.1277 61.8879 98.1403V100.87H57.8795V97.8813C57.8795 96.2871 57.1709 95.4701 55.7538 95.4701C54.3367 95.4701 53.6281 96.2672 53.6281 97.8813V112.328C53.6281 113.903 54.3367 114.7 55.7538 114.7C57.1709 114.7 57.8795 113.903 57.8795 112.328V108.383H61.8879V112.049C61.8879 114.062 61.3616 115.636 60.2886 116.732C59.2157 117.848 57.6771 118.386 55.6526 118.386C53.6281 118.366 52.0693 117.828 51.0166 116.712Z" fill="#222222"/>
<path d="M64.4385 92.1421H68.6696V103.042L74.0547 92.1421H78.2858L73.2652 101.627L78.387 117.987H73.9535L70.3702 106.47L68.6696 109.757V117.987H64.4385V92.1421V92.1421Z" fill="#222222"/>
<path d="M5.62801 89.8904H0V85.2076H16.6208V89.8904H10.9928V118.007H5.62801V89.8904Z" fill="#1C1C1C"/>
<path d="M18.787 92.1421H25.0628C27.2492 92.1421 28.8486 92.6203 29.8406 93.5968C30.8325 94.5732 31.3387 96.0677 31.3387 98.0803V99.6745C31.3387 102.365 30.4074 104.058 28.5651 104.776V104.855C29.5976 105.154 30.3264 105.752 30.7516 106.669C31.1767 107.585 31.3791 108.801 31.3791 110.335V114.879C31.3791 115.616 31.3994 116.214 31.4601 116.672C31.5209 117.13 31.6423 117.569 31.8448 118.027H27.5327C27.3707 117.609 27.2695 117.21 27.229 116.851C27.1683 116.473 27.148 115.815 27.148 114.859V110.136C27.148 108.96 26.9456 108.123 26.5407 107.665C26.1358 107.207 25.4475 106.968 24.4757 106.968H23.0181V118.047H18.787V92.1421ZM24.5567 103.221C25.407 103.221 26.0346 103.022 26.4597 102.584C26.8848 102.165 27.0873 101.468 27.0873 100.472V98.4788C27.0873 97.5423 26.9051 96.8648 26.5609 96.4463C26.2168 96.0278 25.6702 95.8086 24.9211 95.8086H22.9979V103.221H24.5567Z" fill="#1C1C1C"/>
<path d="M37.5739 92.1421H43.3234L47.7164 118.007H43.4853L42.716 112.866V112.946H37.8978L37.1285 118.007H33.201L37.5739 92.1421ZM42.2099 109.439L40.3272 96.6456H40.2462L38.4039 109.439H42.2099Z" fill="#1C1C1C"/>
<path d="M51.0166 116.712C49.9436 115.596 49.4173 114.042 49.4173 112.029V98.1403C49.4173 96.1277 49.9436 94.5535 51.0166 93.4575C52.0896 92.3416 53.6281 91.8036 55.6526 91.8036C57.6771 91.8036 59.2359 92.3615 60.2886 93.4575C61.3616 94.5734 61.8879 96.1277 61.8879 98.1403V100.87H57.8795V97.8813C57.8795 96.2871 57.1709 95.4701 55.7538 95.4701C54.3367 95.4701 53.6281 96.2672 53.6281 97.8813V112.328C53.6281 113.903 54.3367 114.7 55.7538 114.7C57.1709 114.7 57.8795 113.903 57.8795 112.328V108.383H61.8879V112.049C61.8879 114.062 61.3616 115.636 60.2886 116.732C59.2157 117.848 57.6771 118.386 55.6526 118.386C53.6281 118.366 52.0693 117.828 51.0166 116.712Z" fill="#1C1C1C"/>
<path d="M64.4385 92.1421H68.6696V103.042L74.0547 92.1421H78.2858L73.2652 101.627L78.387 117.987H73.9535L70.3702 106.47L68.6696 109.757V117.987H64.4385V92.1421V92.1421Z" fill="#1C1C1C"/>
<path d="M83.509 116.353C82.1526 114.939 81.4845 112.966 81.4845 110.395V92.7798C81.4845 90.2092 82.1526 88.2364 83.509 86.8216C84.8654 85.4068 86.8291 84.7094 89.4002 84.7094C91.9712 84.7094 93.935 85.4068 95.2914 86.8216C96.6477 88.2364 97.3158 90.2092 97.3158 92.7798V96.2471H92.2344V92.461C92.2344 90.4284 91.3437 89.4121 89.5419 89.4121C87.7401 89.4121 86.8494 90.4284 86.8494 92.461V110.794C86.8494 112.786 87.7401 113.803 89.5419 113.803C91.3437 113.803 92.2344 112.806 92.2344 110.794V105.772H97.3158V110.415C97.3158 112.986 96.6477 114.958 95.2914 116.373C93.935 117.788 91.9712 118.485 89.4002 118.485C86.8291 118.485 84.8654 117.768 83.509 116.353Z" fill="#C94A21"/>
<path d="M103.389 92.1421H109.139L113.532 118.007H109.301L108.532 112.866V112.946H103.713L102.944 118.007H98.9964L103.389 92.1421ZM108.025 109.439L106.143 96.6456H106.062L104.219 109.439H108.025Z" fill="#C94A21"/>
<path d="M119.949 117.449C118.451 117.15 117.318 116.473 116.548 115.417C115.759 114.361 115.374 113.006 115.374 111.352V109.658H119.383V111.611C119.383 113.105 120.111 113.863 121.589 113.863C123.047 113.863 123.776 113.085 123.776 111.531C123.776 110.575 123.512 109.698 123.006 108.921C122.5 108.143 121.549 107.247 120.152 106.211C118.431 104.895 117.216 103.68 116.528 102.544C115.84 101.408 115.496 100.133 115.496 98.6981C115.496 97.104 115.88 95.7888 116.629 94.7526C117.378 93.7164 118.492 93.0389 119.97 92.7201V90.4683H123.431V92.7201C124.93 93.019 126.043 93.6965 126.812 94.7327C127.582 95.7888 127.966 97.1239 127.966 98.7778V99.5151H123.958V98.5188C123.958 96.9844 123.249 96.2272 121.832 96.2272C120.415 96.2272 119.706 96.9645 119.706 98.4391C119.706 99.3159 119.97 100.153 120.476 100.89C120.982 101.627 121.933 102.544 123.33 103.6C125.051 104.935 126.266 106.171 126.954 107.307C127.642 108.442 127.986 109.758 127.986 111.232C127.986 112.906 127.602 114.281 126.812 115.357C126.023 116.433 124.889 117.111 123.411 117.41V120H119.949V117.449V117.449Z" fill="#C94A21"/>
<path d="M130.983 92.1421H135.214V102.663H139.769V92.1421H144V118.007H139.769V106.37H135.214V118.007H130.983V92.1421Z" fill="#C94A21"/>
</svg>
